<svg id="Layer_1" data-name="Layer 1" xmlns="http://www.w3.org/2000/svg" viewBox="0 0 1200 332"><defs><style>.cls-1{fill:#fff;}</style></defs><rect class="cls-1" x="24" y="265.8" width="151.5" height="12.16"/><path class="cls-1" d="M355.64,84c-17.63,0-34.53,12.09-51.88,31.19C298.32,96.35,286.07,84,261.56,84c-17.06,0-34.44,12-48.32,27.53h-.7L211,87.82H199.11V240.66h14.07V125.37c16.87-19.16,32-28.71,45.77-28.71,23.43,0,34.25,15.41,34.25,47.81v96.19h14.07V125.37c16.86-19.16,31.38-28.71,45.77-28.71,23.42,0,34.24,15.41,34.24,47.81v96.19h14.07v-98C401.35,103.16,386.07,84,355.64,84Z"/><path class="cls-1" d="M506.63,183.88c-4.39,13-9.29,29.34-14.2,42.9h-1.27c-5.54-13.62-11.58-30-16.61-42.9L437.69,87.82H422.48l62.76,155.7L481,256.83c-7.77,23.3-20.5,40.55-39.15,40.55a38.24,38.24,0,0,1-12.48-2.49l-3.24,12.16a39.1,39.1,0,0,0,15.59,3.18c27.44,0,42.91-24.85,51.44-50.35L553.54,87.82H539.16Z"/><path class="cls-1" d="M652,80.5c-16,0-32.08,8-45.13,19.47l1-26V15.82H571.17V240.66h28.9l3.18-16.43h1c13.11,13,28.39,20.25,42.65,20.25,34.76,0,66.71-30.94,66.71-84.6C713.63,111.81,691,80.5,652,80.5Zm-12.8,133.68c-9,0-20.36-3.44-31.31-13V128.37c11.84-11.85,22.79-17.57,34.12-17.57,23.8,0,34,18.46,34,49.65C676,195.84,660,214.18,639.15,214.18Z"/><path class="cls-1" d="M774.67,112.2h-1l-2.8-27.88h-30V240.66h36.66V145.3c9.42-23.81,24.45-32.34,36.92-32.34,6.5,0,10.57,1,16,2.55l6.37-31.83c-4.71-2.17-9.74-3.18-17.7-3.18C802.36,80.5,785.81,91.83,774.67,112.2Z"/><path class="cls-1" d="M868.43,15.44c-13,0-22.66,8.4-22.66,20.75,0,12.1,9.67,20.75,22.66,20.75s22.66-8.65,22.66-20.75C891.09,23.84,881.42,15.44,868.43,15.44Z"/><rect class="cls-1" x="849.97" y="84.32" width="36.67" height="156.34"/><path class="cls-1" d="M985.55,80.5c-36.79,0-72.06,31.31-72.06,82.11,0,51.57,33.87,81.87,77,81.87,19.86,0,38.7-6.88,53.6-16.94l-12.48-22.79c-11.46,7.13-22.91,11.34-36.28,11.34-25.21,0-43-15.79-46.09-43.55h99.24a94.78,94.78,0,0,0,1.59-17.82C1050.1,111.05,1027.82,80.5,985.55,80.5Zm-36.66,67.09c3.18-25.08,19.22-38.7,37.43-38.7,21.39,0,32.08,14.64,32.08,38.7Z"/><path class="cls-1" d="M1137.12,41.16a43.73,43.73,0,0,1,16.93,3.69l7-27.38A79.49,79.49,0,0,0,1132.41,12c-36.93,0-51.82,23.74-51.82,56.15v16.3l-21,1.52v27.5h21V240.66h36.67V113.47h30.55V84.32h-30.55V67.51C1117.26,49.37,1124.13,41.16,1137.12,41.16Z"/></svg>