<svg id="Layer_1" data-name="Layer 1" xmlns="http://www.w3.org/2000/svg" viewBox="0 0 1200 1200"><defs><style>.cls-1{fill:#ef5f2c;}</style></defs><path class="cls-1" d="M1175.31,1174H32.31V31h1143ZM75.42,1130.89H1132.2V74.11H75.42Z"/><path class="cls-1" d="M294.83,711c-23.15,0-46.29,11.57-65.12,28.1l1.47-37.47v-84H178.27v324.4H220l4.6-23.7H226c18.92,18.74,41,29.21,61.54,29.21,50.15,0,96.25-44.64,96.25-122.06C383.82,756.18,351.22,711,294.83,711ZM276.36,903.86c-13,0-29.38-5-45.18-18.73V780.06c17.08-17.09,32.88-25.35,49.23-25.35,34.35,0,49,26.63,49,71.64C329.45,877.41,306.49,903.86,276.36,903.86Z"/><path class="cls-1" d="M471.89,756.73h-1.47l-4-40.23H423V942.07h52.9V804.49c13.59-34.35,35.27-46.66,53.27-46.66,9.37,0,15.25,1.47,23.14,3.67l9.19-45.92c-6.8-3.12-14-4.59-25.53-4.59C511.84,711,488,727.34,471.89,756.73Z"/><path class="cls-1" d="M607.17,617.12c-18.74,0-32.7,12.13-32.7,29.94,0,17.46,14,29.94,32.7,29.94s32.69-12.48,32.69-29.94C639.86,629.25,625.9,617.12,607.17,617.12Z"/><rect class="cls-1" x="580.53" y="716.5" width="52.9" height="225.57"/><path class="cls-1" d="M776.15,711c-53.08,0-104,45.19-104,118.48,0,74.39,48.87,118.11,111.14,118.11,28.65,0,55.84-9.92,77.33-24.43l-18-32.88c-16.53,10.29-33.07,16.35-52.35,16.35-36.37,0-62.09-22.78-66.5-62.82H867a137.62,137.62,0,0,0,2.29-25.72C869.28,755.07,837.14,711,776.15,711Zm-52.9,96.8c4.59-36.18,27.74-55.84,54-55.84,30.87,0,46.3,21.13,46.3,55.84Z"/><path class="cls-1" d="M994.83,654.23a62.94,62.94,0,0,1,24.43,5.33l10.1-39.5a114.71,114.71,0,0,0-41.33-7.9c-53.27,0-74.76,34.26-74.76,81V716.7L883,718.89v39.67h30.31V942.07h52.9V758.56h44.09V716.5H966.17V692.25C966.17,666.08,976.09,654.23,994.83,654.23Z"/><rect class="cls-1" x="178.27" y="539.16" width="241.85" height="19.41"/><path class="cls-1" d="M707.68,249c-28.15,0-55.13,19.3-82.81,49.79C616.18,268.66,596.62,249,557.49,249c-27.23,0-55,19.1-77.12,43.95h-1.12L476.81,255h-19V499h22.45V315c26.93-30.59,51-45.83,73.07-45.83,37.39,0,54.67,24.59,54.67,76.31V499h22.45V315c26.93-30.59,50.1-45.83,73.07-45.83,37.39,0,54.67,24.59,54.67,76.31V499h22.45V342.54C780.64,279.53,756.25,249,707.68,249Z"/><path class="cls-1" d="M948.7,408.38c-7,20.73-14.84,46.85-22.66,68.49h-2c-8.84-21.74-18.5-47.86-26.52-68.49L838.65,255H814.37L914.56,503.59l-6.71,21.24c-12.4,37.2-32.72,64.74-62.49,64.74a61.09,61.09,0,0,1-19.92-4L820.26,605a62.36,62.36,0,0,0,24.89,5.08c43.8,0,68.49-39.68,82.11-80.38L1023.59,255h-23Z"/></svg>